<svg width="208" height="208" viewBox="0 0 208 208" fill="none" xmlns="http://www.w3.org/2000/svg">
<circle cx="104" cy="104" r="100" fill="#FF006B" stroke="white" stroke-width="8"/>
<path d="M57.517 177V159.545H61.2074V173.957H68.6903V177H57.517ZM74.799 177.247C73.9638 177.247 73.2195 177.102 72.5661 176.812C71.9126 176.517 71.3956 176.082 71.0149 175.509C70.6399 174.929 70.4524 174.207 70.4524 173.344C70.4524 172.616 70.5859 172.006 70.853 171.511C71.12 171.017 71.4837 170.619 71.9439 170.318C72.4041 170.017 72.9268 169.79 73.5121 169.636C74.103 169.483 74.7223 169.375 75.37 169.312C76.1314 169.233 76.745 169.159 77.2109 169.091C77.6768 169.017 78.0149 168.909 78.2251 168.767C78.4354 168.625 78.5405 168.415 78.5405 168.136V168.085C78.5405 167.545 78.37 167.128 78.0291 166.832C77.6939 166.537 77.2166 166.389 76.5973 166.389C75.9439 166.389 75.424 166.534 75.0376 166.824C74.6513 167.108 74.3956 167.466 74.2706 167.898L70.9126 167.625C71.0831 166.83 71.4183 166.142 71.9183 165.562C72.4183 164.977 73.0632 164.528 73.853 164.216C74.6484 163.898 75.5689 163.739 76.6143 163.739C77.3416 163.739 78.0376 163.824 78.7024 163.994C79.3729 164.165 79.9666 164.429 80.4837 164.787C81.0064 165.145 81.4183 165.605 81.7195 166.168C82.0206 166.724 82.1712 167.392 82.1712 168.17V177H78.728V175.185H78.6257C78.4155 175.594 78.1342 175.955 77.782 176.267C77.4297 176.574 77.0064 176.815 76.5121 176.991C76.0178 177.162 75.4467 177.247 74.799 177.247ZM75.8388 174.741C76.3729 174.741 76.8445 174.636 77.2536 174.426C77.6626 174.21 77.9837 173.92 78.2166 173.557C78.4496 173.193 78.5661 172.781 78.5661 172.321V170.932C78.4524 171.006 78.2962 171.074 78.0973 171.136C77.9041 171.193 77.6854 171.247 77.4411 171.298C77.1967 171.344 76.9524 171.386 76.7081 171.426C76.4638 171.46 76.2422 171.491 76.0433 171.52C75.6172 171.582 75.245 171.682 74.9268 171.818C74.6087 171.955 74.3615 172.139 74.1854 172.372C74.0092 172.599 73.9212 172.884 73.9212 173.224C73.9212 173.719 74.1001 174.097 74.4581 174.358C74.8217 174.614 75.282 174.741 75.8388 174.741ZM89.8118 177.213C88.8175 177.213 87.9169 176.957 87.1101 176.446C86.3089 175.929 85.6726 175.17 85.201 174.17C84.7351 173.165 84.5021 171.932 84.5021 170.472C84.5021 168.972 84.7436 167.724 85.2266 166.73C85.7095 165.73 86.3516 164.983 87.1527 164.489C87.9595 163.989 88.843 163.739 89.8033 163.739C90.5362 163.739 91.147 163.864 91.6357 164.114C92.13 164.358 92.5277 164.665 92.8288 165.034C93.1357 165.398 93.3686 165.756 93.5277 166.108H93.6385V159.545H97.2607V177H93.6811V174.903H93.5277C93.3572 175.267 93.1158 175.628 92.8033 175.986C92.4964 176.338 92.0959 176.631 91.6016 176.864C91.1129 177.097 90.5163 177.213 89.8118 177.213ZM90.9624 174.324C91.5476 174.324 92.0419 174.165 92.4453 173.847C92.8544 173.523 93.1669 173.071 93.3828 172.491C93.6044 171.912 93.7152 171.233 93.7152 170.455C93.7152 169.676 93.6072 169 93.3913 168.426C93.1754 167.852 92.8629 167.409 92.4538 167.097C92.0447 166.784 91.5476 166.628 90.9624 166.628C90.3658 166.628 89.8629 166.79 89.4538 167.114C89.0447 167.437 88.7351 167.886 88.5249 168.46C88.3146 169.034 88.2095 169.699 88.2095 170.455C88.2095 171.216 88.3146 171.889 88.5249 172.474C88.7408 173.054 89.0504 173.509 89.4538 173.838C89.8629 174.162 90.3658 174.324 90.9624 174.324ZM102.487 181.909C102.027 181.909 101.595 181.872 101.192 181.798C100.794 181.73 100.464 181.642 100.203 181.534L101.021 178.824C101.447 178.955 101.831 179.026 102.172 179.037C102.518 179.048 102.817 178.969 103.067 178.798C103.322 178.628 103.53 178.338 103.689 177.929L103.902 177.375L99.206 163.909H103.024L105.734 173.523H105.871L108.607 163.909H112.45L107.362 178.415C107.118 179.119 106.786 179.733 106.365 180.256C105.95 180.784 105.425 181.19 104.788 181.474C104.152 181.764 103.385 181.909 102.487 181.909ZM121.348 163.909V166.636H113.268V163.909H121.348ZM115.118 177V162.963C115.118 162.014 115.303 161.227 115.672 160.602C116.047 159.977 116.558 159.509 117.206 159.196C117.854 158.884 118.589 158.727 119.413 158.727C119.97 158.727 120.479 158.77 120.939 158.855C121.405 158.94 121.751 159.017 121.979 159.085L121.331 161.812C121.189 161.767 121.013 161.724 120.803 161.685C120.598 161.645 120.388 161.625 120.172 161.625C119.638 161.625 119.266 161.75 119.055 162C118.845 162.244 118.74 162.588 118.74 163.031V177H115.118ZM126.83 177.247C125.995 177.247 125.251 177.102 124.597 176.812C123.944 176.517 123.427 176.082 123.046 175.509C122.671 174.929 122.484 174.207 122.484 173.344C122.484 172.616 122.617 172.006 122.884 171.511C123.151 171.017 123.515 170.619 123.975 170.318C124.435 170.017 124.958 169.79 125.543 169.636C126.134 169.483 126.754 169.375 127.401 169.312C128.163 169.233 128.776 169.159 129.242 169.091C129.708 169.017 130.046 168.909 130.256 168.767C130.467 168.625 130.572 168.415 130.572 168.136V168.085C130.572 167.545 130.401 167.128 130.06 166.832C129.725 166.537 129.248 166.389 128.629 166.389C127.975 166.389 127.455 166.534 127.069 166.824C126.683 167.108 126.427 167.466 126.302 167.898L122.944 167.625C123.114 166.83 123.45 166.142 123.95 165.562C124.45 164.977 125.094 164.528 125.884 164.216C126.68 163.898 127.6 163.739 128.646 163.739C129.373 163.739 130.069 163.824 130.734 163.994C131.404 164.165 131.998 164.429 132.515 164.787C133.038 165.145 133.45 165.605 133.751 166.168C134.052 166.724 134.202 167.392 134.202 168.17V177H130.759V175.185H130.657C130.447 175.594 130.165 175.955 129.813 176.267C129.461 176.574 129.038 176.815 128.543 176.991C128.049 177.162 127.478 177.247 126.83 177.247ZM127.87 174.741C128.404 174.741 128.876 174.636 129.285 174.426C129.694 174.21 130.015 173.92 130.248 173.557C130.481 173.193 130.597 172.781 130.597 172.321V170.932C130.484 171.006 130.327 171.074 130.129 171.136C129.935 171.193 129.717 171.247 129.472 171.298C129.228 171.344 128.984 171.386 128.739 171.426C128.495 171.46 128.273 171.491 128.075 171.52C127.648 171.582 127.276 171.682 126.958 171.818C126.64 171.955 126.393 172.139 126.217 172.372C126.04 172.599 125.952 172.884 125.952 173.224C125.952 173.719 126.131 174.097 126.489 174.358C126.853 174.614 127.313 174.741 127.87 174.741ZM137.019 177V163.909H140.65V177H137.019ZM138.843 162.222C138.303 162.222 137.84 162.043 137.454 161.685C137.073 161.321 136.883 160.886 136.883 160.381C136.883 159.881 137.073 159.452 137.454 159.094C137.84 158.73 138.303 158.548 138.843 158.548C139.383 158.548 139.843 158.73 140.224 159.094C140.61 159.452 140.803 159.881 140.803 160.381C140.803 160.886 140.61 161.321 140.224 161.685C139.843 162.043 139.383 162.222 138.843 162.222ZM143.558 177V163.909H147.078V166.193H147.214C147.453 165.381 147.854 164.767 148.416 164.352C148.979 163.932 149.626 163.722 150.359 163.722C150.541 163.722 150.737 163.733 150.947 163.756C151.158 163.778 151.342 163.81 151.501 163.849V167.071C151.331 167.02 151.095 166.974 150.794 166.935C150.493 166.895 150.217 166.875 149.967 166.875C149.433 166.875 148.956 166.991 148.536 167.224C148.121 167.452 147.791 167.77 147.547 168.179C147.308 168.588 147.189 169.06 147.189 169.594V177H143.558Z" fill="white"/>
<path d="M90.0055 52.4333C77.9126 36.9229 88.5815 21.982 95.4276 16.4504C89.5126 39.8475 106.6 57.3929 115.637 64.7562C133.382 79.2151 139.305 84.1442 143.076 92.5238C152.54 113.555 142.309 131.628 136.011 138.036C138.476 129.164 138.749 124.07 138.968 121.277C140.479 102.054 120.731 81.8439 110.708 73.6287C101.638 65.742 93.1273 56.2123 90.0055 52.4333Z" fill="white"/>
<path d="M70.9461 55.8837C64.3739 34.1954 76.423 23.0774 83.269 20.2295C77.6169 32.3223 80.0377 43.999 81.9545 48.3257C85.5693 57.5 96.6325 66.8922 102.821 73.1358C112.351 82.0083 120.895 90.3879 123.852 95.317C125.331 97.7816 134.861 107.969 124.838 122.427C108.013 143.59 84.6382 144.39 75.0537 142.144C57.3087 138.727 46.9575 126.918 44 121.442C60.9563 137.609 78.778 137.817 85.5693 135.9C104.366 130.906 110.379 118.703 111.037 113.226C112.456 101.396 109.886 101.999 105.779 103.368C85.2407 109.94 80.421 107.969 77.6826 106.654C74.3965 105.603 74.5608 101.615 75.0537 99.7533C74.8894 94.9884 72.9177 93.8383 71.2747 93.1811C69.9603 92.6553 69.9603 91.6475 70.1246 91.2094L70.9461 89.402L67.1671 86.9375L68.8101 83.3227C71.3076 80.431 65.3597 77.6268 62.0736 76.5862C61.2849 75.929 61.745 74.4502 62.0736 73.793C69.4345 68.2724 71.0556 61.963 70.9461 59.4985C67.0028 59.8928 65.4693 59.3341 65.1954 59.0055C67.5614 58.6112 66.1812 56.76 65.1954 55.8837C68.613 57.5925 70.4532 56.5957 70.9461 55.8837Z" fill="white"/>
<path d="M109.394 48.9829C97.9579 35.1812 104.629 19.2436 109.394 13C105.713 36.7914 121.716 52.1047 129.439 59.1698C138.969 67.0565 152.058 77.7911 156.056 82.0083C172.355 102.251 159.342 125.385 150.799 134.422C162.497 110.762 148.443 87.1017 139.954 78.2292C119.909 60.4843 112.844 53.1472 109.394 48.9829Z" fill="white"/>
<path d="M90.0055 52.4333C77.9126 36.9229 88.5815 21.982 95.4276 16.4504C89.5126 39.8475 106.6 57.3929 115.637 64.7562C133.382 79.2151 139.305 84.1442 143.076 92.5238C152.54 113.555 142.309 131.628 136.011 138.036C138.476 129.164 138.749 124.07 138.968 121.277C140.479 102.054 120.731 81.8439 110.708 73.6287C101.638 65.742 93.1273 56.2123 90.0055 52.4333Z" fill="white"/>
<path d="M70.9461 55.8837C64.3739 34.1954 76.423 23.0774 83.269 20.2295C77.6169 32.3223 80.0377 43.999 81.9545 48.3257C85.5693 57.5 96.6325 66.8922 102.821 73.1358C112.351 82.0083 120.895 90.3879 123.852 95.317C125.331 97.7816 134.861 107.969 124.838 122.427C108.013 143.59 84.6382 144.39 75.0537 142.144C57.3087 138.727 46.9575 126.918 44 121.442C60.9563 137.609 78.778 137.817 85.5693 135.9C104.366 130.906 110.379 118.703 111.037 113.226C112.456 101.396 109.886 101.999 105.779 103.368C85.2407 109.94 80.421 107.969 77.6826 106.654C74.3965 105.603 74.5608 101.615 75.0537 99.7533C74.8894 94.9884 72.9177 93.8383 71.2747 93.1811C69.9603 92.6553 69.9603 91.6475 70.1246 91.2094L70.9461 89.402L67.1671 86.9375L68.8101 83.3227C71.3076 80.431 65.3597 77.6268 62.0736 76.5862C61.2849 75.929 61.745 74.4502 62.0736 73.793C69.4345 68.2724 71.0556 61.963 70.9461 59.4985C67.0028 59.8928 65.4693 59.3341 65.1954 59.0055C67.5614 58.6112 66.1812 56.76 65.1954 55.8837C68.613 57.5925 70.4532 56.5957 70.9461 55.8837Z" fill="white"/>
<path d="M109.394 48.9829C97.9579 35.1812 104.629 19.2436 109.394 13C105.713 36.7914 121.716 52.1047 129.439 59.1698C138.969 67.0565 152.058 77.7911 156.056 82.0083C172.355 102.251 159.342 125.385 150.799 134.422C162.497 110.762 148.443 87.1017 139.954 78.2292C119.909 60.4843 112.844 53.1472 109.394 48.9829Z" fill="white"/>
</svg>
